<?xml version="1.0" standalone="no"?>
<!DOCTYPE svg PUBLIC "-//W3C//DTD SVG 20010904//EN"
 "http://www.w3.org/TR/2001/REC-SVG-20010904/DTD/svg10.dtd">
<svg version="1.0" xmlns="http://www.w3.org/2000/svg"
 width="260.000000pt" height="260.000000pt" viewBox="0 0 260.000000 260.000000"
 preserveAspectRatio="xMidYMid meet">
<metadata>
Created by potrace 1.14, written by Peter Selinger 2001-2017
</metadata>
<g transform="translate(0.000000,260.000000) scale(0.100000,-0.100000)"
fill="#000000" stroke="none">
<path d="M2037 2569 c-76 -63 -82 -139 -16 -232 43 -62 46 -73 36 -127 -5 -26
-27 -56 -86 -114 l-80 -79 -128 126 c-170 168 -231 211 -373 261 -215 76 -479
14 -666 -156 -64 -58 -92 -156 -71 -241 10 -38 10 -38 -59 -105 -57 -56 -142
-151 -197 -222 -12 -15 -72 -107 -94 -145 -80 -134 -169 -382 -188 -521 -3
-22 -8 -61 -12 -89 -9 -61 -8 -311 0 -380 7 -52 11 -77 27 -160 6 -27 12 -60
15 -73 14 -74 58 -193 74 -201 41 -22 187 -64 266 -77 22 -3 42 -7 45 -9 19
-11 150 -20 305 -20 165 0 220 4 298 19 15 4 37 8 50 10 34 6 106 26 167 46
237 80 442 211 643 413 59 59 83 77 95 71 33 -14 104 -16 150 -3 75 21 173
127 229 250 52 112 75 286 51 392 -42 190 -99 285 -277 462 -67 66 -121 123
-121 128 0 4 34 43 75 85 127 129 175 230 175 367 0 116 -33 204 -109 288 -44
49 -74 63 -136 66 -43 2 -55 -3 -88 -30z"/>
</g>
</svg>
